<svg preserveAspectRatio="none" width="100%" height="100%" overflow="visible" style="display: block;" viewBox="0 0 32 32" fill="none" xmlns="http://www.w3.org/2000/svg">
<g id="Icon">
<path d="M0 16C0 7.16344 7.16344 0 16 0V0C24.8366 0 32 7.16344 32 16V16C32 24.8366 24.8366 32 16 32V32C7.16344 32 0 24.8366 0 16V16Z" fill="var(--fill-0, #606060)"/>
<path id="Ellipse 1" d="M27.25 16C27.25 22.2132 22.2132 27.25 16 27.25C9.7868 27.25 4.75 22.2132 4.75 16C4.75 9.7868 9.7868 4.75 16 4.75C22.2132 4.75 27.25 9.7868 27.25 16Z" fill="var(--fill-0, black)"/>
<path id="Ellipse 1 (Stroke)" d="M26.5 16C26.5 10.201 21.799 5.49997 16 5.49997C10.201 5.49997 5.5 10.201 5.5 16C5.5 21.799 10.201 26.5 16 26.5C21.799 26.5 26.5 21.799 26.5 16ZM28 16C28 22.6274 22.6274 28 16 28C9.37258 28 4 22.6274 4 16C4 9.37255 9.37258 3.99997 16 3.99997C22.6274 3.99997 28 9.37255 28 16Z" fill="var(--fill-0, white)"/>
<path id="Ellipse 3" d="M20.6875 16C20.6875 18.5888 18.5888 20.6875 16 20.6875C13.4112 20.6875 11.3125 18.5888 11.3125 16C11.3125 13.4112 13.4112 11.3125 16 11.3125C18.5888 11.3125 20.6875 13.4112 20.6875 16Z" fill="var(--fill-0, white)"/>
<path id="Ellipse 2" d="M16 27.25C22.2132 27.25 27.25 22.2132 27.25 16C27.25 9.7868 22.2132 4.75 16 4.75V27.25Z" fill="var(--fill-0, white)"/>
<path id="Ellipse 4" d="M16 20.6875C18.5888 20.6875 20.6875 18.5888 20.6875 16C20.6875 13.4112 18.5888 11.3125 16 11.3125V20.6875Z" fill="var(--fill-0, black)"/>
</g>
</svg>
