<svg preserveAspectRatio="none" width="100%" height="100%" overflow="visible" style="display: block;" viewBox="0 0 40 40" fill="none" xmlns="http://www.w3.org/2000/svg">
<g id="Compass">
<path id="Vector" opacity="0.2" d="M20 5C17.0333 5 14.1332 5.87973 11.6665 7.52796C9.19972 9.17618 7.27713 11.5189 6.14181 14.2597C5.0065 17.0006 4.70945 20.0166 5.28823 22.9264C5.86701 25.8361 7.29562 28.5088 9.39341 30.6066C11.4912 32.7044 14.1639 34.133 17.0737 34.7118C19.9834 35.2906 22.9994 34.9935 25.7403 33.8582C28.4812 32.7229 30.8238 30.8003 32.4721 28.3336C34.1203 25.8668 35 22.9667 35 20C35 16.0218 33.4197 12.2064 30.6066 9.3934C27.7936 6.58035 23.9783 5 20 5ZM22.5 22.5L12.5 27.5L17.5 17.5L27.5 12.5L22.5 22.5Z" fill="var(--fill-0, #737373)"/>
<path id="Vector_2" d="M20 3.75C16.7861 3.75 13.6443 4.70305 10.972 6.48862C8.29969 8.27419 6.21689 10.8121 4.98696 13.7814C3.75704 16.7507 3.43524 20.018 4.06225 23.1702C4.68926 26.3224 6.23692 29.2179 8.50952 31.4905C10.7821 33.7631 13.6776 35.3108 16.8298 35.9378C19.982 36.5648 23.2493 36.243 26.2186 35.013C29.1879 33.7831 31.7258 31.7003 33.5114 29.028C35.297 26.3557 36.25 23.2139 36.25 20C36.2455 15.6916 34.5319 11.561 31.4855 8.51454C28.439 5.46806 24.3084 3.75455 20 3.75ZM20 33.75C17.2805 33.75 14.6221 32.9436 12.3609 31.4327C10.0997 29.9218 8.33737 27.7744 7.29666 25.2619C6.25596 22.7494 5.98366 19.9847 6.51421 17.3175C7.04476 14.6503 8.35432 12.2003 10.2773 10.2773C12.2003 8.35431 14.6503 7.04475 17.3175 6.5142C19.9848 5.98366 22.7494 6.25595 25.2619 7.29666C27.7744 8.33736 29.9218 10.0997 31.4327 12.3609C32.9436 14.6221 33.75 17.2805 33.75 20C33.7459 23.6455 32.2959 27.1404 29.7182 29.7182C27.1404 32.2959 23.6455 33.7459 20 33.75ZM26.9406 11.3812L16.9406 16.3812C16.6989 16.5027 16.5027 16.6989 16.3813 16.9406L11.3813 26.9406C11.2859 27.1313 11.2408 27.3431 11.2504 27.5561C11.2599 27.7691 11.3238 27.9761 11.4359 28.1574C11.548 28.3387 11.7047 28.4883 11.8909 28.5921C12.0771 28.6958 12.2868 28.7502 12.5 28.75C12.6941 28.7497 12.8855 28.7048 13.0594 28.6188L23.0594 23.6188C23.3011 23.4973 23.4973 23.3011 23.6188 23.0594L28.6188 13.0594C28.7367 12.8246 28.7777 12.5586 28.7359 12.2992C28.694 12.0398 28.5715 11.8001 28.3857 11.6143C28.1999 11.4285 27.9603 11.306 27.7008 11.2642C27.4414 11.2223 27.1754 11.2633 26.9406 11.3812ZM21.5625 21.5625L15.2953 24.7047L18.4375 18.4375L24.7109 15.3016L21.5625 21.5625Z" fill="var(--fill-0, #737373)"/>
</g>
</svg>
